/* XPM */
static char *Self_Sands_Of_Destruction_Text_EditorFrm_XPM[]={
/* Self_Sands_Of_Destruction_Text_EditorFrm */
"32 32 13 1",
"      c None",
"0     c #D67373",
"1     c #D6737B",
"2     c #DE7B7B",
"3     c #E68484",
"4     c #AD525A",
"5     c #633A3A",
"6     c #101010",
"7     c #4A2931",
"8     c #10423A",
"9     c #FFA59C",
"a     c #196363",
"b     c #EF8C8C",
"  0111223333333333333333322110  ",
" 011223333333333333333333332210 ",
"0 123 33333333333333333333 232 0",
"14233 33333333333333333333 23341",
"14 33433333333333333333333423 41",
"2 4005333333333333333333335004 2",
"04666740333333333333333304666740",
"46866664233333333333333246866664",
"58966667033333333333333058966667",
"66666666033333333333333066666666",
"66668886033333333333333066668886",
"76688aa7233333333333333076688aa5",
"46688a54333333333333333246688a54",
" 457754333333333333333333457754 ",
"3333333333333 4444 3333333333333",
"33333333333358866665333333333333",
"9b333333333 78966667 333333333b9",
"99333333333 7666688a 33333333399",
"9b3333333333476688a43333333333b9",
"33333333333334767a43333333333333",
"33333333333333333333333333333333",
"33333333333333333333333333333333",
"333333  3333333333333333  333333",
"333333 54 333457754333 45 333333",
"333333345777754  457777543333333",
"33333333333333333333333333333333",
"23333333333333333333333333333332",
"13333333333333333333333333333331",
"12333333333333333333333333333321",
"01233333333333333333333333333210",
" 012233333333333333333333332210 ",
"  0112233333333333333333322110  "};

